<svg id="Layer_1" data-name="Layer 1" xmlns="http://www.w3.org/2000/svg" viewBox="0 0 666.89 569.66"><defs><style>.cls-1{fill:#e9dacb;}.cls-2{fill:#e2d7ce;}.cls-3{fill:#eee1d9;}.cls-20,.cls-4{fill:none;}.cls-4,.cls-5{stroke:#b78062;}.cls-20,.cls-4,.cls-5{stroke-miterlimit:10;}.cls-5{fill:#edddd1;}.cls-15,.cls-6{fill:#231f20;}.cls-6,.cls-7,.cls-9{opacity:0.1;}.cls-7{fill:#765800;}.cls-8{fill:#ad852e;}.cls-10,.cls-9{fill:#0d0d0d;}.cls-11{fill:#c96f44;}.cls-12{fill:#955033;}.cls-13{fill:#b26846;}.cls-14{fill:#d29076;}.cls-15{opacity:0.2;}.cls-16{fill:#d0835a;}.cls-17{fill:#c4a981;}.cls-18{fill:#7a553d;}.cls-19{fill:#997054;}.cls-20{stroke:#a78763;stroke-width:2px;}.cls-21{fill:#442e21;}</style></defs><title>Artboard 1</title><rect class="cls-1" x="30.84" y="536.95" width="595.17" height="16.35"/><rect class="cls-2" x="30.84" y="553.31" width="595.17" height="16.35"/><rect class="cls-3" x="78.48" y="121.9" width="101.47" height="137.34"/><rect class="cls-3" x="16.69" y="71.24" width="225.06" height="56.02" rx="13.9" ry="13.9"/><path class="cls-4" d="M199.14,74.75c21.16-1,30.62,2,34.15,17.35a22.79,22.79,0,0,1-17.1,27.32,18.23,18.23,0,0,1-21.86-13.68,14.6,14.6,0,0,1,10.95-17.49,11.67,11.67,0,0,1,14,8.76,9.34,9.34,0,0,1-7,11.19,7.46,7.46,0,0,1-8.95-5.6,6,6,0,0,1,4.48-7.17A4.79,4.79,0,0,1,213.52,99a3.82,3.82,0,0,1-2.87,4.58"/><path class="cls-4" d="M58.34,74.75c-21.16-1-30.62,2-34.15,17.35a22.79,22.79,0,0,0,17.1,27.32,18.22,18.22,0,0,0,21.85-13.68A14.59,14.59,0,0,0,52.2,88.25a11.68,11.68,0,0,0-14,8.76,9.34,9.34,0,0,0,7,11.19,7.47,7.47,0,0,0,9-5.6,6,6,0,0,0-4.48-7.17A4.78,4.78,0,0,0,44,99a3.81,3.81,0,0,0,2.87,4.58"/><polygon class="cls-4" points="179.13 121.9 78.48 121.9 58.34 74.75 199.28 74.75 179.13 121.9"/><rect class="cls-3" x="78.08" y="259.2" width="101.47" height="114.58"/><rect class="cls-3" x="78.08" y="373.78" width="101.47" height="114.58"/><rect class="cls-4" x="78.08" y="121.9" width="101.47" height="113.92" rx="6.05" ry="6.05"/><rect class="cls-4" x="78.48" y="235.82" width="101.47" height="137.95" rx="6.05" ry="6.05"/><rect class="cls-4" x="78.48" y="373.82" width="101.47" height="114.54" rx="6.05" ry="6.05"/><polygon class="cls-5" points="179.54 488.4 78.89 488.4 38.6 535.55 219.83 535.55 179.54 488.4"/><path class="cls-3" d="M666.89,11.55V60.29a11.53,11.53,0,0,1-7.59,10.85,11.77,11.77,0,0,1-4,.7H11.53A11.53,11.53,0,0,1,0,60.29V11.55A11.53,11.53,0,0,1,11.53,0H655.34A11.55,11.55,0,0,1,666.89,11.55Z"/><polygon class="cls-6" points="178.67 487.95 218.43 534.49 128.33 534.49 128.33 487.95 178.67 487.95"/><path class="cls-6" d="M240.85,98.79a28,28,0,0,1-28,28H179.07V361.15a12,12,0,0,1-.4,3.08v18.23a12.12,12.12,0,0,1,.4,3.09v90.18a12.1,12.1,0,0,1-.4,3.08v9.1H128.33V74.31h98.12A28,28,0,0,1,240.85,98.79Z"/><rect class="cls-3" x="489.63" y="123.31" width="101.47" height="137.34"/><rect class="cls-3" x="427.84" y="72.64" width="225.06" height="56.02" rx="13.9" ry="13.9"/><path class="cls-4" d="M610.29,76.16c21.16-1,30.62,2,34.15,17.35a22.8,22.8,0,0,1-17.1,27.32,18.24,18.24,0,0,1-21.86-13.68,14.6,14.6,0,0,1,10.95-17.49,11.67,11.67,0,0,1,14,8.76,9.34,9.34,0,0,1-7,11.19,7.47,7.47,0,0,1-8.95-5.61,6,6,0,0,1,4.48-7.16,4.79,4.79,0,0,1,5.73,3.59A3.82,3.82,0,0,1,621.8,105"/><path class="cls-4" d="M469.49,76.16c-21.16-1-30.62,2-34.15,17.35a22.8,22.8,0,0,0,17.1,27.32,18.25,18.25,0,0,0,21.86-13.68,14.6,14.6,0,0,0-10.95-17.49,11.68,11.68,0,0,0-14,8.76,9.34,9.34,0,0,0,7,11.19,7.47,7.47,0,0,0,8.95-5.61,6,6,0,0,0-4.48-7.16,4.79,4.79,0,0,0-5.73,3.59A3.82,3.82,0,0,0,458,105"/><polygon class="cls-4" points="590.29 123.31 489.63 123.31 469.49 76.16 610.43 76.16 590.29 123.31"/><rect class="cls-3" x="489.23" y="260.6" width="101.47" height="114.58"/><rect class="cls-3" x="489.23" y="375.18" width="101.47" height="114.58"/><rect class="cls-4" x="489.23" y="123.31" width="101.47" height="113.92" rx="6.05" ry="6.05"/><rect class="cls-4" x="489.63" y="237.23" width="101.47" height="137.95" rx="6.05" ry="6.05"/><rect class="cls-4" x="489.63" y="375.23" width="101.47" height="114.54" rx="6.05" ry="6.05"/><polygon class="cls-5" points="590.69 489.81 490.04 489.81 449.75 536.96 630.98 536.96 590.69 489.81"/><polygon class="cls-6" points="589.82 489.36 629.58 535.89 539.48 535.89 539.48 489.36 589.82 489.36"/><path class="cls-6" d="M652,100.19a28,28,0,0,1-28,28H590.22V362.56a12,12,0,0,1-.4,3.08v18.23a12.1,12.1,0,0,1,.4,3.08v90.18a12.12,12.12,0,0,1-.4,3.09v9.1H539.48V75.72H637.6A28,28,0,0,1,652,100.19Z"/><path class="cls-7" d="M666.89,60.29V35.93H0V60.29A11.53,11.53,0,0,0,11.53,71.84H655.34A11.55,11.55,0,0,0,666.89,60.29Z"/><path class="cls-8" d="M604.6,531.14c-7.12,9.49-31.37,20.47-51.05,20.85V425.37A88,88,0,0,1,568,427l1.33.27a40.72,40.72,0,0,1,6.76,3.73l.9.61.31.22.32.22.65.46.82.6.4.3.45.34.69.54c.44.35.88.7,1.33,1.08l.42.35c1.44,1.21,2.92,2.56,4.41,4.06.92.92,1.88,2,2.86,3.13.54.64,1.09,1.32,1.64,2l.53.7c.74,1,1.5,2.08,2.25,3.23,5.69,8.62,11.54,21.45,15.49,39.8C613.16,505.45,618.32,512.85,604.6,531.14Z"/><path class="cls-8" d="M570.4,409.65l-.33,4.26c-.33,4.36-1.7,8.73-2.08,13.09l-14.44.27V409.65Z"/><path class="cls-8" d="M598.43,426.36c-5.08-4.72-12.94-2.46-21.2,3.65a10.4,10.4,0,0,0-1.15,1l.9.61.31.22.32.22.65.46.82.6.4.3.45.34.69.54c.44.35.88.7,1.33,1.08l.42.35c5.62-8.44,9.43-7.82,12.77-4.69,4.53,4.22,1.93,6.72-4.79,11.37l-.71.51c.54.64,1.09,1.32,1.64,2l.53.7c.74,1,1.5,2.08,2.25,3.23a13.57,13.57,0,0,0,1.49-1.73C602.3,437.83,605.26,432.72,598.43,426.36Z"/><path class="cls-8" d="M502.5,531.14c7.12,9.49,31.37,20.47,51,20.85V425.37a88.62,88.62,0,0,0-15.76,1.9c-1.84.68-9.54,4.56-17.47,12.51-7.4,7.41-17.06,22.41-22.76,48.9C494,505.45,488.79,512.85,502.5,531.14Z"/><path class="cls-8" d="M539.11,427c-.37-4.36-1.75-8.73-2.08-13.09-.11-1.42-.22-2.84-.32-4.26h16.84v17.62Z"/><path class="cls-8" d="M529.88,430c-8.27-6.11-16.13-8.37-21.2-3.65-6.84,6.36-3.87,11.47,2.88,20.79a13.52,13.52,0,0,0,1.48,1.73q.71-1.08,1.41-2.07l.38-.52.47-.64c.17-.24.35-.47.52-.7.55-.72,1.1-1.4,1.64-2l-.71-.51c-6.72-4.65-9.32-7.15-4.79-11.37,3.34-3.13,7.16-3.75,12.77,4.69l.43-.35.33-.28,1-.8.7-.54.44-.34.4-.3.83-.6.64-.46.32-.22.31-.22.31-.21.6-.4A12.62,12.62,0,0,0,529.88,430Z"/><path class="cls-9" d="M609.55,488.68c-3.95-18.35-9.8-31.18-15.49-39.8a13.57,13.57,0,0,0,1.49-1.73c6.75-9.32,9.71-14.43,2.88-20.79-5.08-4.72-12.94-2.46-21.2,3.65a10.4,10.4,0,0,0-1.15,1,40.72,40.72,0,0,0-6.76-3.73L568,427c.38-4.36,1.75-8.73,2.08-13.09l.33-4.26H553.55V552c19.68-.38,43.93-11.36,51.05-20.85C618.32,512.85,613.16,505.45,609.55,488.68Zm-22.77-48.9c-1.49-1.5-3-2.85-4.41-4.06,5.62-8.44,9.43-7.82,12.77-4.69,4.53,4.22,1.93,6.72-4.79,11.37l-.71.51C588.66,441.74,587.7,440.7,586.78,439.78Z"/><ellipse class="cls-10" cx="553.82" cy="410.56" rx="16.85" ry="2.8"/><polygon class="cls-11" points="489.18 408.36 489.18 453.37 517.31 453.37 504.46 407.69 504.04 406.19 489.73 408.28 489.5 408.32 489.24 408.36 489.18 408.36"/><path class="cls-11" d="M489.18,453.37v62h7.71l2.51,0h.16l.9,0,.89,0,1.31-.05.65,0,1.31-.07q1,0,1.95-.12l.66,0,1.3-.09.88-.08.89-.07.82-.07.64-.07.64-.06c1.08-.11,2.14-.23,3.2-.36l1.27-.16.63-.09,1.55-.22,1.81-.29.74-.12.76-.14.15,0,.76-.14c1.11-.21,2.2-.43,3.27-.67l.8-.18.84-.2.74-.18h0l.77-.19.77-.21q.79-.21,1.59-.45l.66-.2c.75-.23,1.48-.47,2.2-.71l.69-.25.63-.23.81-.31.62-.24.59-.25.73-.31.54-.24c.43-.2.85-.39,1.26-.6l.38-.19.41-.21c.39-.2.77-.41,1.14-.62l.51-.3.07,0,.49-.3.54-.34.53-.35c5-3.44,8.12-7.89,8.12-13.58,0-13.71-14.24-30.67-35.68-38.18Z"/><path class="cls-12" d="M489.18,515.33v18.26h.32l.23,0a76.27,76.27,0,0,0,21.07-4.49c.7-.25,1.39-.51,2.07-.79a83.33,83.33,0,0,0,32-23.14l-.53.35-.54.34-.49.3-.07,0-.51.3c-.37.21-.75.42-1.14.62l-.41.21-.38.19c-.41.21-.83.4-1.26.6l-.54.24-.73.31-.59.25-.62.24-.81.31-.63.23-.69.25c-.72.24-1.45.48-2.2.71l-.66.2q-.79.24-1.59.45l-.77.21-.77.19h0l-.74.18-.84.2-.8.18c-1.07.24-2.16.46-3.27.67l-.76.14-.15,0-.76.14-.74.12-1.81.29-1.55.22-.63.09-1.27.16c-1.06.13-2.12.25-3.2.36l-.64.06-.64.07-.82.07-.89.07-.88.08-1.3.09-.66,0q-1,.08-1.95.12l-1.31.07-.65,0-1.31.05-.89,0-.9,0h-.16l-2.51,0h-7.71Z"/><path class="cls-12" d="M489.18,532.54v5.39h.55c22.11-.14,23.1-9.17,23.14-9.66v0c1-.34.14-.57-2.07-.73-.18,0-.38,0-.58,0a67,67,0,0,1-20.49,5l-.23,0h-.32Z"/><path class="cls-13" d="M489.18,390.36v19.39h2.54a37.84,37.84,0,0,0,12.74-2.06c5.35-1.95,8.83-5.1,8.83-8.65,0-8.7-10.86-8.7-22.77-8.7h-1.34Z"/><path class="cls-14" d="M489.41,390.59v7.34h.71c9.78,0,17.7-1.65,17.7-3.68s-7.79-3.65-17.45-3.68Z"/><polygon class="cls-11" points="461.14 453.37 489.27 453.37 489.27 408.36 479.91 406.19 461.14 453.37"/><path class="cls-11" d="M489.27,453.37v62h-5c-27.39,0-58.75-5.59-58.75-23.78,0-13.71,14.24-30.66,35.68-38.18Z"/><path class="cls-12" d="M489.5,515.33v18.26a76.9,76.9,0,0,1-21.62-4.52,83,83,0,0,1-34.05-23.94c11.1,7.56,31.8,10.2,50.62,10.2Z"/><path class="cls-12" d="M489.5,532.54v5.39c-23.28,0-23.69-9.68-23.69-9.68-1-.34-.14-.57,2.07-.73l.58,0A66.6,66.6,0,0,0,489.5,532.54Z"/><path class="cls-13" d="M489.5,390.36v19.39H487c-11.91,0-21.57-4.79-21.57-10.71,0-8.7,10.86-8.7,22.77-8.7Z"/><path class="cls-14" d="M489.73,390.59v7.34H489c-9.78,0-17.7-1.64-17.7-3.68s7.79-3.65,17.45-3.67Z"/><path class="cls-11" d="M444.73,425.17c4.4,15.39,6.51,29.7,18.65,32.47,5.1,1.17,5.26-9,4.77-9.76-6-9.75-7.1-13.19-10.15-22.48-5.13-15.65,3.68-20.42,10.63-16.08,4.73,3,8.81,7.55,9.94,5.49,10.61-5.06-8-18.69-17.36-18.69C450.8,396.12,440.83,411.53,444.73,425.17Z"/><path class="cls-15" d="M489.73,390.35V537.93c22.11-.14,23.1-9.17,23.14-9.66a83.33,83.33,0,0,0,32-23.14c5-3.44,8.12-7.89,8.12-13.58,0-13.71-14.24-30.67-35.68-38.18h0l-12.85-45.68c5.35-1.95,8.83-5.1,8.83-8.65,0-8.7-10.86-8.7-22.77-8.7Z"/><path class="cls-16" d="M243.73,494.36v3.5a.85.85,0,0,1-.85.87A2.66,2.66,0,0,1,241,498a6.44,6.44,0,0,0-4.56-2c-2,0-3.08,1-4.41,2.76-5.64,14.56-18.83,22.64-34.62,30.33h-.25l.21,7.82a3,3,0,0,1-3,2.76h-76a3,3,0,0,1-3-2.76l.22-7.82h-.24c-15.79-7.69-29-15.77-34.62-30.33h0C79.42,497,78.39,496,76.34,496a6.4,6.4,0,0,0-4.56,2,2.71,2.71,0,0,1-1.87.77.86.86,0,0,1-.87-.87v-3.5L78,487l-.14-1.27h0c-.08-1.35-.14-2.74-.14-4.17a4.66,4.66,0,0,1,4.67-4.66H230.33a4.73,4.73,0,0,1,3.3,1.35,4.66,4.66,0,0,1,1.37,3.31c0,1.43-.06,2.82-.16,4.17h.06l-.14,1.27Z"/><path class="cls-17" d="M243.73,494.36v3.5a.85.85,0,0,1-.85.87A2.66,2.66,0,0,1,241,498a6.44,6.44,0,0,0-4.56-2c-2,0-3.08,1-4.41,2.76H80.73C79.42,497,78.39,496,76.34,496a6.4,6.4,0,0,0-4.56,2,2.71,2.71,0,0,1-1.87.77.86.86,0,0,1-.87-.87v-3.5L78,487l-.14-1.27h157l-.14,1.27Z"/><path class="cls-6" d="M243.73,494.36v3.5a.85.85,0,0,1-.85.87A2.66,2.66,0,0,1,241,498a6.44,6.44,0,0,0-4.56-2c-2,0-3.08,1-4.41,2.76-5.64,14.56-18.83,22.64-34.62,30.33h-.25l.21,7.82a3,3,0,0,1-3,2.76h-38V476.89h74a4.73,4.73,0,0,1,3.3,1.35,4.66,4.66,0,0,1,1.37,3.31c0,1.43-.06,2.82-.16,4.17h.06l-.14,1.27Z"/><path class="cls-18" d="M170.57,532.46c-2.13,2.13-19.75,17.09-36.31,18.16-2.74.17-6.09.36-9.8.55l-.75,0-2.1.1-1,0c-1.64.07-3.33.15-5,.21l-1,.05-3.79.13-.72,0h-.36l-1.05,0-.75,0-1.82,0h-.35l-1.44,0h-.43c-1.82.05-3.63.08-5.42.1l-1.33,0h-2c-11.11.08-20.91-.27-24.93-1.45-9.08-2.67-33.53-16-43.2-30.45s-7.54-23.49-8.07-32c-.2-3.1,1.44-5.92,3.6-8.26a35.14,35.14,0,0,1,9.22-6.7c2.86,6.59,5.87,17.17,11.84,26,4.81,7.1,11.53,13,21.62,14.83.75.13,1.53.24,2.32.33,11.2,1.22,24.19,1.21,36.31.9,13.38-.35,25.72-1.07,33.47-1,.62,0,1.22,0,1.78,0,13.89.53,21.37,2.67,24,6.41S172.71,530.32,170.57,532.46Z"/><path class="cls-19" d="M170.57,532.46c-2.13,2.13-19.75,17.09-36.31,18.16-2.74.17-6.09.36-9.8.55l-.75,0-2.1.1-1,0c-1.64.07-3.33.15-5,.21l-1,.05-3.79.13-.72,0h-.36l-1.05,0-.75,0-1.82,0h-.35l-1.44,0h-.43c-1.82.05-3.63.08-5.42.1l-1.33,0h-2c-11.11.08-20.91-.27-24.93-1.45-9.08-2.67-33.53-16-43.2-30.45s-7.54-23.49-8.07-32c-.2-3.1,1.44-5.92,3.6-8.26,0,0,0,0,0,0C21,481.4,18.9,488.13,27,500.41c7.84,11.94,21.57,26.91,36.07,31.67l1.25.38c6.73,1.92,21.79,2.22,39.52,1.92C125.49,534,151.18,532.75,170.57,532.46Z"/><path class="cls-20" d="M107.47,532.66c0-7.47-3.27-13.52-7.31-13.52"/><path class="cls-20" d="M114.78,532.66c0-7.47-3.27-13.52-7.31-13.52"/><path class="cls-20" d="M122.09,532.66c0-7.47-3.27-13.52-7.31-13.52"/><path class="cls-20" d="M128,532.66c0-7.47-3.27-13.52-7.31-13.52"/><path class="cls-20" d="M133.84,532.66c0-7.47-3.27-13.52-7.31-13.52"/><path class="cls-20" d="M80.18,532.66c0-7.47-3.27-13.52-7.31-13.52"/><path class="cls-20" d="M87.49,532.66c0-7.47-3.27-13.52-7.31-13.52"/><path class="cls-20" d="M94.64,532.66c0-7.47-3.27-13.52-7.31-13.52"/><path class="cls-20" d="M100.72,532.66c0-7.47-3.27-13.52-7.31-13.52"/><path class="cls-20" d="M142.62,532.73c0-8.22-4.4-14.87-9.85-14.87"/><path class="cls-20" d="M153,532.55c0-7.76-4.64-14-10.39-14"/><path class="cls-20" d="M66.77,517.79c0,8.16,1.55,14.76,3.45,14.76"/><path class="cls-20" d="M59.94,516.45c0,8.81,1.73,15.94,3.88,15.94"/><path class="cls-20" d="M53.61,510.71c-2.57,7.14-3.87,13.14-2.91,13.4"/><path class="cls-20" d="M34.42,509.64c0-5.8,4.1-10.5,9.18-10.5"/><path class="cls-20" d="M43.08,517.55a8.22,8.22,0,0,1,4.77-11.43"/><path class="cls-20" d="M28.21,500.73c0-5.8,4.11-10.49,9.18-10.49"/><path class="cls-21" d="M137.7,514.61c0,1.26-14.91,2.29-33.89,2.39h-3c-20.4,0-36.94-1.07-36.94-2.4,0-.22.47-.44,1.36-.64,4.36-1,18.63-1.75,35.58-1.75h3c17.1.09,30.91.93,33.47,2Q137.7,514.43,137.7,514.61Z"/><path class="cls-15" d="M170.57,532.46c-2.13,2.13-19.75,17.09-36.31,18.16-2.74.17-6.09.36-9.8.55l-.75,0-2.1.1-1,0c-1.64.07-3.33.15-5,.21l-1,.05-3.79.13-.72,0h-.36l-1.05,0-.75,0-1.82,0h-.35l-1.44,0h-.46V515.2c13.38-.35,25.72-1.07,33.47-1,.62,0,1.22,0,1.78,0,13.89.53,21.37,2.67,24,6.41S172.71,530.32,170.57,532.46Z"/></svg>