<?xml version="1.0" encoding="UTF-8" standalone="no"?>
<!-- Created with Inkscape (http://www.inkscape.org/) -->

<svg
   xmlns:dc="http://purl.org/dc/elements/1.1/"
   xmlns:cc="http://creativecommons.org/ns#"
   xmlns:rdf="http://www.w3.org/1999/02/22-rdf-syntax-ns#"
   xmlns:svg="http://www.w3.org/2000/svg"
   xmlns="http://www.w3.org/2000/svg"
   xmlns:sodipodi="http://sodipodi.sourceforge.net/DTD/sodipodi-0.dtd"
   xmlns:inkscape="http://www.inkscape.org/namespaces/inkscape"
   width="629.32269"
   height="455.59232"
   id="svg2"
   sodipodi:version="0.32"
   inkscape:version="0.92.0 r15299"
   sodipodi:docname="tent.svg"
   inkscape:output_extension="org.inkscape.output.svg.inkscape"
   version="1.0"
   style="display:inline">
  <defs
     id="defs4">
    <inkscape:perspective
       sodipodi:type="inkscape:persp3d"
       inkscape:vp_x="0 : 561.25983 : 1"
       inkscape:vp_y="0 : 1066.6667 : 0"
       inkscape:vp_z="793.70078 : 561.25983 : 1"
       inkscape:persp3d-origin="396.85039 : 374.17322 : 1"
       id="perspective10" />
    <inkscape:perspective
       id="perspective2484"
       inkscape:persp3d-origin="396.85039 : 374.17322 : 1"
       inkscape:vp_z="793.70078 : 561.25983 : 1"
       inkscape:vp_y="0 : 1066.6667 : 0"
       inkscape:vp_x="0 : 561.25983 : 1"
       sodipodi:type="inkscape:persp3d" />
  </defs>
  <sodipodi:namedview
     id="base"
     pagecolor="#ffffff"
     bordercolor="#666666"
     borderopacity="1.0"
     inkscape:pageopacity="0.0"
     inkscape:pageshadow="2"
     inkscape:zoom="1.4"
     inkscape:cx="362.81146"
     inkscape:cy="152.30972"
     inkscape:document-units="px"
     inkscape:current-layer="svg2"
     showgrid="true"
     inkscape:window-width="1920"
     inkscape:window-height="1046"
     inkscape:window-x="-11"
     inkscape:window-y="-11"
     showguides="true"
     inkscape:guide-bbox="true"
     objecttolerance="10000"
     gridtolerance="10000"
     guidetolerance="10000"
     inkscape:snap-global="false"
     fit-margin-top="0"
     fit-margin-left="0"
     fit-margin-right="0"
     fit-margin-bottom="0"
     inkscape:window-maximized="1">
    <inkscape:grid
       type="xygrid"
       id="grid3388"
       visible="false"
       enabled="false"
       originx="49.340319"
       originy="0.41134267"
       spacingx="1.0666667"
       spacingy="1.0666667" />
  </sodipodi:namedview>
  <metadata
     id="metadata7">
    <rdf:RDF>
      <cc:Work
         rdf:about="">
        <dc:format>image/svg+xml</dc:format>
        <dc:type
           rdf:resource="http://purl.org/dc/dcmitype/StillImage" />
        <dc:title></dc:title>
      </cc:Work>
    </rdf:RDF>
  </metadata>
  <g
     inkscape:groupmode="layer"
     id="layer2"
     inkscape:label="calque 1"
     style="display:inline"
     sodipodi:insensitive="true"
     transform="translate(-86.653231,-90.29254)" />
  <path
     style="display:inline;fill:#000000;fill-opacity:1;fill-rule:evenodd;stroke:#000000;stroke-width:0;stroke-linecap:butt;stroke-linejoin:miter;stroke-miterlimit:4;stroke-dasharray:none;stroke-opacity:1"
     d="m 64.791214,35.006419 c -2.26704,-1.100096 -2.037813,-4.004501 -2.799595,-6.648149 h 69.989841 c -0.21555,2.014592 -0.32437,3.42481 -2.06285,5.439402 35.29986,19.976694 6.03527,51.372065 -7.95674,39.284523 0.26666,23.772171 -1.2658,72.627705 -0.11594,378.340195 -14.86778,3.92522 -28.589095,5.9041 -49.708305,0.21368 C 69.600857,146.25831 70.401102,91.141662 71.863875,74.289374 51.039672,82.889641 37.145294,47.414003 64.791214,35.006419 Z"
     id="path2501"
     sodipodi:nodetypes="ccccccccc"
     inkscape:connector-curvature="0" />
  <path
     id="path3338"
     d="m 82.324661,40.519166 c -8.591331,-0.130283 -17.056582,2.958645 -21.376114,8.647029 -5.289441,6.965675 -2.508043,16.352694 7.624368,20.257014 8.097766,3.12032 18.97526,1.399488 23.393783,-4.803894 3.458408,-4.855424 1.431846,-11.359477 -5.774053,-13.921248 -5.503034,-1.956373 -12.840917,-0.711541 -15.620661,3.621408 -2.06163,3.21359 -0.615712,7.486795 4.342165,9.016555 1.775335,0.547776 3.719257,0.597856 5.523027,0.167968 1.803772,-0.429888 3.521463,-1.436491 4.295681,-2.915936 0.531766,-1.016139 0.533579,-2.093312 0.01858,-3.110773 -0.514994,-1.017472 -1.713731,-2.016491 -3.421658,-2.398592 -1.11717,-0.249931 -2.233282,-0.212 -3.328689,0.120928 -1.095407,0.332938 -2.234962,1.128362 -2.538365,2.190314 -0.1341,0.469451 -0.06353,0.896288 0.111588,1.323595 -0.587145,-0.797237 -0.64029,-1.859136 -0.07439,-2.741248 1.367803,-2.132075 5.325479,-2.802144 8.293818,-1.746869 4.233511,1.505045 5.495549,5.56417 3.337988,8.593269 -2.91814,4.096917 -10.425685,5.286325 -16.001872,3.137653 -7.263178,-2.79872 -9.329204,-9.755114 -5.420742,-14.902176 4.016811,-5.289717 13.06516,-7.707221 21.115788,-6.134208 l 1.422588,-3.789376 c -1.945998,-0.380234 -3.940207,-0.581344 -5.922838,-0.611413 z m -5.178986,16.763275 2.966061,1.538592 c -0.185345,0.05634 -0.202002,0.05562 -0.390511,0.01344 -0.02718,-0.0061 -0.115615,-0.08819 -0.07439,-0.0067 0.04125,0.08147 0.04463,0.284266 0,0.369536 -0.154703,0.295616 -0.411186,0.458634 -0.911207,0.577813 -0.404033,0.09629 -0.916372,0.07509 -1.366802,-0.0067 -0.02758,-0.02191 -0.07825,-0.04917 -0.102272,-0.06718 -0.150975,-0.113152 -0.220587,-0.187914 -0.288239,-0.262037 -0.06765,-0.07412 -0.07477,0.0609 -0.306842,-0.470304 -0.16985,-0.388821 -0.113765,-0.944117 0.130169,-1.316875 0.10374,-0.158517 0.224504,-0.266677 0.344026,-0.369536 z"
     style="display:inline;fill:#ffffff;fill-opacity:1;fill-rule:evenodd;stroke:none;stroke-width:22.73340607;stroke-linecap:butt;stroke-linejoin:miter;stroke-miterlimit:4;stroke-dasharray:none;stroke-opacity:1"
     inkscape:connector-curvature="0" />
  <path
     id="path3415"
     d="m 154.53117,40.355923 c 8.59135,-0.130282 17.0566,2.958635 21.37613,8.64703 5.28944,6.965664 2.50804,16.352693 -7.62437,20.257013 -8.09776,3.120309 -18.97526,1.399477 -23.3938,-4.803904 -3.45839,-4.855413 -1.43184,-11.359477 5.77407,-13.921237 5.50304,-1.956374 12.8409,-0.711552 15.62066,3.621397 2.06162,3.213589 0.61571,7.486805 -4.34218,9.016565 -1.77532,0.547776 -3.71924,0.597856 -5.52301,0.167968 -1.80379,-0.429898 -3.52146,-1.436501 -4.29568,-2.915936 -0.53177,-1.016138 -0.53359,-2.093312 -0.0186,-3.110784 0.51499,-1.017472 1.71374,-2.01649 3.42167,-2.398592 1.11715,-0.24993 2.23328,-0.212 3.32869,0.120939 1.09539,0.332939 2.23496,1.128352 2.53835,2.190315 0.13411,0.46944 0.0635,0.896277 -0.11158,1.323594 0.58715,-0.797237 0.64029,-1.859136 0.0744,-2.741258 -1.36781,-2.132064 -5.32548,-2.802144 -8.29383,-1.74687 -4.23352,1.505056 -5.49554,5.564182 -3.33799,8.59328 2.91814,4.096907 10.4257,5.286326 16.00188,3.137654 7.26318,-2.798731 9.32921,-9.755115 5.42073,-14.902176 -4.0168,-5.289728 -13.06514,-7.707232 -21.11577,-6.134219 l -1.42259,-3.789376 c 1.94598,-0.380224 3.94021,-0.581333 5.92282,-0.611403 z m 5.17899,16.763275 -2.96607,1.538592 c 0.18537,0.05633 0.20202,0.0556 0.39052,0.01343 0.0272,-0.0061 0.11562,-0.08819 0.0744,-0.0067 -0.0413,0.08148 -0.0446,0.284278 0,0.369536 0.15469,0.295616 0.41117,0.458646 0.91119,0.577814 0.40403,0.09629 0.91637,0.0751 1.3668,-0.0067 0.0276,-0.02191 0.0783,-0.04917 0.10229,-0.06719 0.15096,-0.113152 0.22059,-0.187904 0.28824,-0.262026 0.0677,-0.07412 0.0748,0.06088 0.30682,-0.470315 0.16987,-0.388811 0.11377,-0.944117 -0.13015,-1.316875 -0.10374,-0.158517 -0.22451,-0.266666 -0.34404,-0.369525 z"
     style="display:inline;fill:#ffffff;fill-opacity:1;fill-rule:evenodd;stroke:none;stroke-width:22.73340607;stroke-linecap:butt;stroke-linejoin:miter;stroke-miterlimit:4;stroke-dasharray:none;stroke-opacity:1"
     inkscape:connector-curvature="0" />
  <path
     style="display:inline;fill:#ffffff;fill-opacity:1;fill-rule:evenodd;stroke:none;stroke-width:1.24401557px;stroke-linecap:butt;stroke-linejoin:miter;stroke-opacity:1"
     d="m 87.281755,41.125747 c 24.509775,3.721931 44.744745,2.06015 64.456905,-0.647989 l -0.50673,4.11888 c -32.2672,6.345973 -43.28728,5.962069 -67.16101,-0.405387 z"
     id="path3348"
     sodipodi:nodetypes="ccccc"
     inkscape:connector-curvature="0" />
  <path
     style="display:inline;fill:#ffffff;fill-opacity:1;fill-rule:evenodd;stroke:none;stroke-width:1.24401557px;stroke-linecap:butt;stroke-linejoin:miter;stroke-opacity:1"
     d="m 146.11562,68.247187 c -1.59862,-0.393557 -5.96893,-5.083349 -4.20877,-5.137205 -15.60573,-1.168704 -30.16195,-1.084821 -46.897674,0.302187 0.214074,1.798058 -1.811793,3.314666 -3.807931,4.835018 21.279195,-3.076341 37.714425,-1.676448 54.914375,0 z"
     id="path3350"
     sodipodi:nodetypes="ccccc"
     inkscape:connector-curvature="0" />
  <path
     style="fill:#ffffff;fill-opacity:1;fill-rule:evenodd;stroke:none;stroke-width:9.9521246;stroke-linecap:round;stroke-linejoin:round;stroke-miterlimit:4;stroke-dasharray:none;stroke-opacity:1"
     d="m 152.44106,34.397342 -71.880968,0.110069 c -1.817465,-0.0017 -3.498508,0.224085 -4.401112,0.591072 -0.902661,0.366987 -0.887471,0.818528 0.03968,1.182197 0.927181,0.363659 2.623168,0.583286 4.440301,0.574998 l 71.880953,-0.11008 c 1.81748,0.0017 3.49849,-0.224075 4.40116,-0.591062 0.90262,-0.366986 0.88746,-0.818538 -0.0397,-1.182197 -0.92716,-0.363659 -2.62311,-0.583285 -4.44029,-0.574997 z"
     id="path3516"
     inkscape:connector-curvature="0" />
  <path
     id="path3376"
     d="m 76.105187,75.071806 c -0.415541,0.0067 -0.811445,0.182592 -1.100437,0.488853 -0.289003,0.306272 -0.447392,0.717803 -0.440256,1.143915 0,185.940966 0,278.651096 0,324.880226 0,23.11458 0,34.60872 0,40.32333 0,2.85729 0,4.27267 0,4.97098 0,0.34918 0,0.51826 0,0.60155 0,0.0417 0,0.0632 0,0.0727 0,0.004 7.5e-5,0.005 0,0.006 -0.118048,1.45265 2.907061,2.77987 3.132971,0 0.0021,-0.0264 6.29e-4,-0.0529 0,-0.0794 0,-0.0833 0,-0.25238 0,-0.60155 0,-0.69832 0,-2.1137 0,-4.97099 0,-5.7146 0,-17.20874 0,-40.32333 0,-46.22913 0,-138.93925 0,-324.880219 0.0073,-0.435286 -0.158123,-0.854944 -0.458326,-1.162784 -0.300202,-0.30784 -0.709461,-0.477462 -1.133952,-0.469984 z"
     style="fill:#ffffff;fill-opacity:1;fill-rule:evenodd;stroke:none;stroke-width:16.18924522;stroke-linecap:round;stroke-linejoin:round;stroke-miterlimit:4;stroke-dasharray:none;stroke-opacity:1"
     sodipodi:nodetypes="cscssssssssssscsc"
     inkscape:connector-curvature="0" />
  <path
     style="fill:#ffffff;fill-opacity:1;fill-rule:evenodd;stroke:none;stroke-width:12.79999733;stroke-linecap:round;stroke-linejoin:round;stroke-miterlimit:4;stroke-dasharray:none;stroke-opacity:1"
     d="m 83.254489,73.568147 c -0.864576,0.01384 -1.554507,0.743766 -1.540982,1.630336 0,187.394317 0,280.831477 0,327.421917 0,23.29524 0,34.87375 0,40.63303 0,2.87965 0,4.30427 0,5.00807 0,0.33259 0,0.48816 0,0.57689 0,0.005 0,0.0288 0,0.0335 0,0.0419 0,0.0574 0,0.0669 0,0.004 0,0.007 0,0.009 0,1.96904 3.13088,1.9948 3.13088,0 0,-0.0251 5.76e-4,-0.0501 0,-0.0752 0,-0.0839 0,-0.25845 0,-0.61032 0,-0.7038 0,-2.12843 0,-5.00808 0,-5.75927 0,-17.33779 0,-40.63302 0,-46.59044 0,-140.02761 0,-327.42192 0.0066,-0.434443 -0.158741,-0.853088 -0.458357,-1.16032 -0.299616,-0.307232 -0.707872,-0.476811 -1.131541,-0.470016 z"
     id="path3378"
     sodipodi:nodetypes="ccsssssssssssscsc"
     inkscape:connector-curvature="0" />
  <path
     style="fill:#ffffff;fill-opacity:1;fill-rule:evenodd;stroke:none;stroke-width:12.79999924;stroke-linecap:round;stroke-linejoin:round;stroke-miterlimit:4;stroke-dasharray:none;stroke-opacity:1"
     d="m 90.111459,72.665193 c -0.864586,0.01382 -1.554517,0.743765 -1.540981,1.630336 0,188.309491 0,282.200811 0,329.018831 0,23.40898 0,35.04626 0,40.83368 0,2.89369 0,4.32592 0,5.03312 0,0.33424 0,0.48776 0,0.5769 0,0.005 0,0.0288 0,0.0335 0,0.0421 0,0.0657 0,0.0753 0,0.004 0,0.007 0,0.009 0.17632,1.4465 3.305963,1.43628 3.13088,0 -0.0064,-0.0526 0.0026,-0.10592 0,-0.15887 0,-0.0943 0,-0.22506 0,-0.53508 0,-0.7072 0,-2.13944 0,-5.03312 0,-5.78743 0,-17.42471 0,-40.83369 0,-46.81801 0,-140.70933 0,-329.018824 0.0066,-0.434443 -0.158752,-0.853088 -0.458357,-1.16032 -0.299616,-0.307702 -0.707883,-0.477291 -1.131542,-0.470486 z"
     id="path3382"
     sodipodi:nodetypes="ccsssssscssssscsc"
     inkscape:connector-curvature="0" />
  <path
     id="path3384"
     d="m 103.75394,72.698686 c -0.86285,0.014 -1.55195,0.741323 -1.5407,1.626155 0,188.177379 0,282.008429 0,328.793569 0,23.39259 0,35.02253 0,40.80589 0,2.89164 0,4.32375 0,5.03049 0,0.33416 0,0.48604 0,0.57511 0,0.005 0,0.0285 0,0.0331 0,0.0421 0,0.0631 0,0.0727 0,0.004 0,0.005 0,0.006 0,2.05026 3.12652,1.53762 3.12652,0 0,-0.0529 0.003,-0.10581 0,-0.15866 0,-0.0947 0,-0.22154 0,-0.52882 0,-0.70674 0,-2.13885 0,-5.03049 0,-5.78336 0,-17.4133 0,-40.80589 0,-46.78514 0,-140.61619 0,-328.793569 0.005,-0.432992 -0.15982,-0.849888 -0.45841,-1.156075 -0.29861,-0.306197 -0.70517,-0.475712 -1.12741,-0.47008 z"
     style="fill:#ffffff;fill-opacity:1;fill-rule:evenodd;stroke:none;stroke-width:16.18924332;stroke-linecap:round;stroke-linejoin:round;stroke-miterlimit:4;stroke-dasharray:none;stroke-opacity:1"
     sodipodi:nodetypes="ccsssssscssssscsc"
     inkscape:connector-curvature="0" />
  <path
     id="path3386"
     d="m 117.04649,75.071806 c -0.86286,0.01401 -1.55196,0.741323 -1.54071,1.626155 0,185.898169 0,278.595669 0,324.814159 0,23.10922 0,34.59677 0,40.31006 0,2.85663 0,4.27285 0,4.971 0,0.32991 0,0.4805 0,0.5685 0,0.005 0,0.0285 0,0.0331 0,0.0416 0,0.0566 0,0.0661 0,0.004 0,0.0123 0,0.0132 0.46076,2.12611 3.35693,1.03346 3.13297,0 -0.006,-0.0258 6.4e-4,-0.0529 0,-0.0794 0,-0.0833 0,-0.25245 0,-0.60154 0,-0.69815 0,-2.11436 0,-4.97099 0,-5.71329 0,-17.20085 0,-40.31007 0,-46.21849 0,-138.91599 0,-324.814157 0.005,-0.434144 -0.16066,-0.852086 -0.46067,-1.158475 -0.3,-0.306389 -0.70824,-0.475115 -1.13159,-0.46768 z"
     style="fill:#ffffff;fill-opacity:1;fill-rule:evenodd;stroke:none;stroke-width:16.18924332;stroke-linecap:round;stroke-linejoin:round;stroke-miterlimit:4;stroke-dasharray:none;stroke-opacity:1"
     sodipodi:nodetypes="ccsssssscssssscsc"
     inkscape:connector-curvature="0" />
  <path
     id="path3390"
     d="m 110.29063,73.571251 c -0.41556,0.0067 -0.81145,0.182592 -1.10045,0.488854 -0.289,0.306272 -0.44738,0.717802 -0.44026,1.143914 0,187.269191 0,280.641141 0,327.200481 0,23.27968 0,34.85873 0,40.61416 0,2.87772 0,4.30075 0,5.00407 0,0.33252 0,0.48649 0,0.5751 0,0.005 0,0.0285 0,0.0331 0,0.0419 0,0.0566 0,0.0661 -2e-5,0.004 -3.8e-4,0.009 0,0.0132 0.0645,0.72704 2.20818,2.54103 3.13297,0 6.4e-4,-0.0265 6.4e-4,-0.59339 0,-0.61985 0,-0.0838 0,0.28403 0,-0.0676 0,-0.70332 0,-2.12634 0,-5.00406 0,-5.75544 0,-17.33449 0,-40.61417 0,-46.55934 0,-139.93128 0,-327.200477 0.007,-0.435286 -0.15812,-0.854944 -0.45832,-1.162784 -0.3002,-0.30784 -0.70945,-0.477462 -1.13394,-0.469984 z"
     style="fill:#ffffff;fill-opacity:1;fill-rule:evenodd;stroke:none;stroke-width:16.18924332;stroke-linecap:round;stroke-linejoin:round;stroke-miterlimit:4;stroke-dasharray:none;stroke-opacity:1"
     sodipodi:nodetypes="cscssssssscsssscsc"
     inkscape:connector-curvature="0" />
  <path
     id="path3402"
     d="m 96.733774,72.66563 c -0.862848,0.014 -1.551947,0.741323 -1.540693,1.626155 0,188.308915 0,282.207095 0,329.024945 0,23.40894 0,35.04493 0,40.8323 0,2.89369 0,4.3233 0,5.0305 0,0.35361 0,0.53043 0,0.61478 0,0.0421 0,0.0632 0,0.0727 0,0.004 0,0.005 0,0.006 0,1.93941 3.13296,1.65951 3.13296,0 0,-0.0265 6.4e-4,-0.0529 0,-0.0794 0,-0.0844 0,-0.26117 0,-0.61478 0,-0.7072 0,-2.13682 0,-5.0305 0,-5.78737 0,-17.42336 0,-40.8323 0,-46.81786 0,-140.71603 0,-329.024949 0.0055,-0.434154 -0.160651,-0.852085 -0.460662,-1.158474 -0.30001,-0.30639 -0.708256,-0.475115 -1.131605,-0.46768 z"
     style="fill:#ffffff;fill-opacity:1;fill-rule:evenodd;stroke:none;stroke-width:16.18924332;stroke-linecap:round;stroke-linejoin:round;stroke-miterlimit:4;stroke-dasharray:none;stroke-opacity:1"
     sodipodi:nodetypes="ccssssscssssscsc"
     inkscape:connector-curvature="0" />
  <path
     style="display:inline;fill:#000000;fill-opacity:1;fill-rule:evenodd;stroke:#000000;stroke-width:0;stroke-linecap:butt;stroke-linejoin:miter;stroke-miterlimit:4;stroke-dasharray:none;stroke-opacity:1"
     d="m 517.12172,35.417769 c -2.26704,-1.100096 -2.03782,-4.004501 -2.7996,-6.648149 h 69.98985 c -0.21555,2.014592 -0.32438,3.42481 -2.06286,5.439402 35.29986,19.976694 6.03527,51.372065 -7.95674,39.284523 0.26666,23.772171 -1.2658,72.627705 -0.11593,378.340195 -14.86779,3.92522 -28.5891,5.9041 -49.70831,0.21368 C 521.93136,146.66966 522.7316,91.553012 524.19438,74.700724 503.37018,83.300991 489.4758,47.825353 517.12172,35.417769 Z"
     id="path2501-6"
     sodipodi:nodetypes="ccccccccc"
     inkscape:connector-curvature="0" />
  <path
     id="path3338-1"
     d="m 524.58766,39.816277 c -6.31635,-0.128371 -12.54001,2.915223 -15.71574,8.520123 -3.8888,6.863445 -1.84391,16.112698 5.60544,19.959717 5.95349,3.074526 13.95063,1.378949 17.19913,-4.733391 2.54262,-4.784164 1.05269,-11.192762 -4.24509,-13.716936 -4.04583,-1.927661 -9.44065,-0.701098 -11.48432,3.568259 -1.51571,3.166427 -0.45267,7.376917 3.19236,8.884226 1.30523,0.539737 2.7344,0.589082 4.06054,0.165503 1.32613,-0.423579 2.58898,-1.415409 3.15818,-2.873141 0.39096,-1.001226 0.39229,-2.06259 0.0137,-3.065118 -0.37862,-1.00254 -1.25993,-1.986897 -2.5156,-2.36339 -0.82134,-0.246263 -1.64191,-0.208889 -2.44725,0.119153 -0.80535,0.328052 -1.64315,1.111802 -1.86621,2.158169 -0.0986,0.462561 -0.0467,0.883133 0.082,1.304169 -0.43167,-0.785536 -0.47074,-1.831851 -0.0547,-2.701017 1.00561,-2.100784 3.91529,-2.761019 6.09762,-1.721231 3.11248,1.482956 4.04033,5.482509 2.45409,8.467152 -2.14542,4.036789 -7.66497,5.208741 -11.76459,3.091604 -5.33989,-2.757645 -6.85883,-9.611946 -3.98533,-14.683468 2.95316,-5.212084 9.60551,-7.594108 15.52434,-6.044181 l 1.04589,-3.733762 c -1.4307,-0.374654 -2.89684,-0.572812 -4.35448,-0.60244 z m -3.8076,16.517253 2.18065,1.516011 c -0.13626,0.05551 -0.14851,0.0548 -0.2871,0.01324 -0.02,-0.006 -0.085,-0.0869 -0.0547,-0.0066 0.0303,0.08027 0.0328,0.280093 0,0.364112 -0.11374,0.291277 -0.3023,0.451903 -0.66992,0.569332 -0.29705,0.09488 -0.67372,0.07399 -1.00487,-0.0066 -0.0203,-0.02159 -0.0575,-0.04845 -0.0752,-0.06619 -0.111,-0.111491 -0.16218,-0.185156 -0.21192,-0.258191 -0.0497,-0.07303 -0.055,0.06001 -0.22559,-0.463402 -0.12487,-0.383114 -0.0836,-0.930261 0.0957,-1.297548 0.0763,-0.15619 0.16506,-0.262763 0.25293,-0.364112 z"
     style="display:inline;fill:#ffffff;fill-opacity:1;fill-rule:evenodd;stroke:none;stroke-width:19.34892845;stroke-linecap:butt;stroke-linejoin:miter;stroke-miterlimit:4;stroke-dasharray:none;stroke-opacity:1"
     inkscape:connector-curvature="0" />
  <path
     id="path3415-6"
     d="m 577.67393,39.65543 c 6.31636,-0.12837 12.54002,2.915213 15.71574,8.520124 3.8888,6.863434 1.84392,16.112698 -5.60544,19.959716 -5.95348,3.074515 -13.95062,1.378938 -17.19913,-4.733401 -2.54262,-4.784153 -1.0527,-11.192762 4.2451,-13.716925 4.04583,-1.927662 9.44064,-0.701109 11.48432,3.568248 1.5157,3.166426 0.45267,7.376927 -3.19238,8.884236 -1.30521,0.539737 -2.73439,0.589082 -4.06052,0.165504 -1.32614,-0.423589 -2.58898,-1.415419 -3.15819,-2.873142 -0.39095,-1.001225 -0.39229,-2.06259 -0.0137,-3.065128 0.37863,-1.002541 1.25995,-1.986897 2.51562,-2.363391 0.82133,-0.246261 1.64191,-0.208888 2.44725,0.119164 0.80534,0.328053 1.64315,1.111792 1.8662,2.15817 0.0986,0.462551 0.0467,0.883123 -0.082,1.304169 0.43167,-0.785537 0.47074,-1.831851 0.0547,-2.701028 -1.00561,-2.100773 -3.9153,-2.761018 -6.09763,-1.721232 -3.11248,1.482967 -4.04032,5.48252 -2.45409,8.467163 2.14542,4.036779 7.66498,5.208743 11.76459,3.091605 5.3399,-2.757656 6.85884,-9.611947 3.98533,-14.683468 -2.95316,-5.212095 -9.60551,-7.594119 -15.52433,-6.044192 l -1.04589,-3.733762 c 1.43069,-0.374644 2.89684,-0.572801 4.35446,-0.60243 z m 3.80759,16.517253 -2.18065,1.516011 c 0.13628,0.0555 0.14853,0.05478 0.28711,0.01323 0.02,-0.006 0.085,-0.0869 0.0547,-0.0066 -0.0303,0.08028 -0.0328,0.280107 0,0.364113 0.11373,0.291278 0.30229,0.451916 0.66991,0.569334 0.29704,0.09488 0.67371,0.074 1.00487,-0.0066 0.0203,-0.02159 0.0575,-0.04845 0.0752,-0.0662 0.11099,-0.111491 0.16218,-0.185146 0.21192,-0.25818 0.0497,-0.07303 0.055,0.05999 0.22557,-0.463413 0.12489,-0.383104 0.0836,-0.930261 -0.0957,-1.297548 -0.0763,-0.15619 -0.16505,-0.262752 -0.25293,-0.364102 z"
     style="display:inline;fill:#ffffff;fill-opacity:1;fill-rule:evenodd;stroke:none;stroke-width:19.34892845;stroke-linecap:butt;stroke-linejoin:miter;stroke-miterlimit:4;stroke-dasharray:none;stroke-opacity:1"
     inkscape:connector-curvature="0" />
  <path
     style="display:inline;fill:#ffffff;fill-opacity:1;fill-rule:evenodd;stroke:none;stroke-width:1.05881047px;stroke-linecap:butt;stroke-linejoin:miter;stroke-opacity:1"
     d="m 528.23212,40.413956 c 18.0196,3.667307 32.89636,2.029915 47.38875,-0.638479 l -0.37254,4.05843 c -23.72287,6.252838 -31.82484,5.874568 -49.37682,-0.399437 z"
     id="path3348-6"
     sodipodi:nodetypes="ccccc"
     inkscape:connector-curvature="0" />
  <path
     style="display:inline;fill:#ffffff;fill-opacity:1;fill-rule:evenodd;stroke:none;stroke-width:1.05881047px;stroke-linecap:butt;stroke-linejoin:miter;stroke-opacity:1"
     d="m 571.48682,67.137355 c -1.17531,-0.387781 -4.38837,-5.008745 -3.0943,-5.06181 -11.47334,-1.151552 -22.17508,-1.0689 -34.4792,0.297752 0.15739,1.771669 -1.33203,3.26602 -2.79959,4.764058 15.64448,-3.031192 27.72767,-1.651844 40.37309,0 z"
     id="path3350-9"
     sodipodi:nodetypes="ccccc"
     inkscape:connector-curvature="0" />
  <path
     style="display:inline;fill:#ffffff;fill-opacity:1;fill-rule:evenodd;stroke:none;stroke-width:8.47048378;stroke-linecap:round;stroke-linejoin:round;stroke-miterlimit:4;stroke-dasharray:none;stroke-opacity:1"
     d="m 576.13728,33.784299 -52.84693,0.108454 c -1.33621,-0.0017 -2.57211,0.220796 -3.23571,0.582397 -0.66363,0.361601 -0.65246,0.806515 0.0292,1.164847 0.68167,0.358322 1.92856,0.574726 3.26452,0.566559 l 52.84692,-0.108464 c 1.33621,0.0017 2.5721,-0.220787 3.23573,-0.582388 0.66361,-0.3616 0.65246,-0.806525 -0.0292,-1.164847 -0.68164,-0.358322 -1.92851,-0.574724 -3.2645,-0.566558 z"
     id="path3516-5"
     inkscape:connector-curvature="0" />
  <path
     id="path3376-2"
     d="m 528.43569,75.483156 c -0.41554,0.0067 -0.81145,0.182592 -1.10044,0.488853 -0.289,0.306272 -0.44739,0.717803 -0.44025,1.143915 0,185.940966 0,278.651096 0,324.880226 0,23.11458 0,34.60872 0,40.32333 0,2.85729 0,4.27267 0,4.97098 0,0.34918 0,0.51826 0,0.60155 0,0.0417 0,0.0632 0,0.0727 0,0.004 7e-5,0.005 0,0.006 -0.11805,1.45265 2.90706,2.77987 3.13297,0 0.002,-0.0264 6.3e-4,-0.0529 0,-0.0794 0,-0.0833 0,-0.25238 0,-0.60155 0,-0.69832 0,-2.1137 0,-4.97099 0,-5.7146 0,-17.20874 0,-40.32333 0,-46.22913 0,-138.93925 0,-324.880219 0.007,-0.435286 -0.15813,-0.854944 -0.45833,-1.162784 -0.3002,-0.30784 -0.70946,-0.477462 -1.13395,-0.469984 z"
     style="display:inline;fill:#ffffff;fill-opacity:1;fill-rule:evenodd;stroke:none;stroke-width:16.18924522;stroke-linecap:round;stroke-linejoin:round;stroke-miterlimit:4;stroke-dasharray:none;stroke-opacity:1"
     sodipodi:nodetypes="cscssssssssssscsc"
     inkscape:connector-curvature="0" />
  <path
     style="display:inline;fill:#ffffff;fill-opacity:1;fill-rule:evenodd;stroke:none;stroke-width:12.79999733;stroke-linecap:round;stroke-linejoin:round;stroke-miterlimit:4;stroke-dasharray:none;stroke-opacity:1"
     d="m 535.58499,73.979497 c -0.86457,0.01384 -1.55451,0.743766 -1.54098,1.630336 0,187.394317 0,280.831477 0,327.421917 0,23.29524 0,34.87375 0,40.63303 0,2.87965 0,4.30427 0,5.00807 0,0.33259 0,0.48816 0,0.57689 0,0.005 0,0.0288 0,0.0335 0,0.0419 0,0.0574 0,0.0669 0,0.004 0,0.007 0,0.009 0,1.96904 3.13088,1.9948 3.13088,0 0,-0.0251 5.8e-4,-0.0501 0,-0.0752 0,-0.0839 0,-0.25845 0,-0.61032 0,-0.7038 0,-2.12843 0,-5.00808 0,-5.75927 0,-17.33779 0,-40.63302 0,-46.59044 0,-140.02761 0,-327.42192 0.007,-0.434443 -0.15874,-0.853088 -0.45836,-1.160319 -0.29961,-0.307232 -0.70787,-0.476811 -1.13154,-0.470017 z"
     id="path3378-8"
     sodipodi:nodetypes="ccsssssssssssscsc"
     inkscape:connector-curvature="0" />
  <path
     style="display:inline;fill:#ffffff;fill-opacity:1;fill-rule:evenodd;stroke:none;stroke-width:12.79999924;stroke-linecap:round;stroke-linejoin:round;stroke-miterlimit:4;stroke-dasharray:none;stroke-opacity:1"
     d="m 542.44196,73.076543 c -0.86458,0.01382 -1.55452,0.743765 -1.54098,1.630336 0,188.309491 0,282.200811 0,329.018831 0,23.40898 0,35.04626 0,40.83368 0,2.89369 0,4.32592 0,5.03312 0,0.33424 0,0.48776 0,0.5769 0,0.005 0,0.0288 0,0.0335 0,0.0421 0,0.0657 0,0.0753 0,0.004 0,0.007 0,0.009 0.17632,1.4465 3.30596,1.43628 3.13088,0 -0.006,-0.0526 0.003,-0.10592 0,-0.15887 0,-0.0943 0,-0.22506 0,-0.53508 0,-0.7072 0,-2.13944 0,-5.03312 0,-5.78743 0,-17.42471 0,-40.83369 0,-46.81801 0,-140.70933 0,-329.018823 0.007,-0.434443 -0.15875,-0.853088 -0.45836,-1.16032 -0.29961,-0.307703 -0.70788,-0.477292 -1.13154,-0.470487 z"
     id="path3382-1"
     sodipodi:nodetypes="ccsssssscssssscsc"
     inkscape:connector-curvature="0" />
  <path
     id="path3384-1"
     d="m 556.08445,73.110036 c -0.86286,0.014 -1.55196,0.741323 -1.54071,1.626155 0,188.177379 0,282.008429 0,328.793569 0,23.39259 0,35.02253 0,40.80589 0,2.89164 0,4.32375 0,5.03049 0,0.33416 0,0.48604 0,0.57511 0,0.005 0,0.0285 0,0.0331 0,0.0421 0,0.0631 0,0.0727 0,0.004 0,0.005 0,0.006 0,2.05026 3.12652,1.53762 3.12652,0 0,-0.0529 0.003,-0.10581 0,-0.15866 0,-0.0947 0,-0.22154 0,-0.52882 0,-0.70674 0,-2.13885 0,-5.03049 0,-5.78336 0,-17.4133 0,-40.80589 0,-46.78514 0,-140.61619 0,-328.793569 0.005,-0.432992 -0.15982,-0.849888 -0.45841,-1.156075 -0.2986,-0.306197 -0.70516,-0.475712 -1.1274,-0.47008 z"
     style="display:inline;fill:#ffffff;fill-opacity:1;fill-rule:evenodd;stroke:none;stroke-width:16.18924332;stroke-linecap:round;stroke-linejoin:round;stroke-miterlimit:4;stroke-dasharray:none;stroke-opacity:1"
     sodipodi:nodetypes="ccsssssscssssscsc"
     inkscape:connector-curvature="0" />
  <path
     id="path3386-2"
     d="m 569.37699,75.483156 c -0.86286,0.01401 -1.55196,0.741323 -1.5407,1.626155 0,185.898169 0,278.595669 0,324.814159 0,23.10922 0,34.59677 0,40.31006 0,2.85663 0,4.27285 0,4.971 0,0.32991 0,0.4805 0,0.5685 0,0.005 0,0.0285 0,0.0331 0,0.0416 0,0.0566 0,0.0661 0,0.004 0,0.0123 0,0.0132 0.46075,2.12611 3.35693,1.03346 3.13297,0 -0.006,-0.0258 6.4e-4,-0.0529 0,-0.0794 0,-0.0833 0,-0.25245 0,-0.60154 0,-0.69815 0,-2.11436 0,-4.97099 0,-5.71329 0,-17.20085 0,-40.31007 0,-46.21849 0,-138.91599 0,-324.814157 0.005,-0.434144 -0.16066,-0.852086 -0.46067,-1.158475 -0.3,-0.306389 -0.70825,-0.475115 -1.1316,-0.46768 z"
     style="display:inline;fill:#ffffff;fill-opacity:1;fill-rule:evenodd;stroke:none;stroke-width:16.18924332;stroke-linecap:round;stroke-linejoin:round;stroke-miterlimit:4;stroke-dasharray:none;stroke-opacity:1"
     sodipodi:nodetypes="ccsssssscssssscsc"
     inkscape:connector-curvature="0" />
  <path
     id="path3390-1"
     d="m 562.62113,73.982601 c -0.41555,0.0067 -0.81145,0.182592 -1.10045,0.488855 -0.289,0.306272 -0.44738,0.717801 -0.44025,1.143914 0,187.26919 0,280.64114 0,327.20048 0,23.27968 0,34.85873 0,40.61416 0,2.87772 0,4.30075 0,5.00407 0,0.33252 0,0.48649 0,0.5751 0,0.005 0,0.0285 0,0.0331 0,0.0419 0,0.0566 0,0.0661 -3e-5,0.004 -3.9e-4,0.009 0,0.0132 0.0645,0.72704 2.20818,2.54103 3.13297,0 6.4e-4,-0.0265 6.4e-4,-0.59339 0,-0.61985 0,-0.0838 0,0.28403 0,-0.0676 0,-0.70332 0,-2.12634 0,-5.00406 0,-5.75544 0,-17.33449 0,-40.61417 0,-46.55934 0,-139.93128 0,-327.200476 0.007,-0.435286 -0.15813,-0.854944 -0.45833,-1.162784 -0.3002,-0.30784 -0.70945,-0.477462 -1.13394,-0.469984 z"
     style="display:inline;fill:#ffffff;fill-opacity:1;fill-rule:evenodd;stroke:none;stroke-width:16.18924332;stroke-linecap:round;stroke-linejoin:round;stroke-miterlimit:4;stroke-dasharray:none;stroke-opacity:1"
     sodipodi:nodetypes="cscssssssscsssscsc"
     inkscape:connector-curvature="0" />
  <path
     id="path3402-8"
     d="m 549.06428,73.076981 c -0.86285,0.014 -1.55195,0.741323 -1.5407,1.626154 0,188.308915 0,282.207095 0,329.024945 0,23.40894 0,35.04493 0,40.8323 0,2.89369 0,4.3233 0,5.0305 0,0.35361 0,0.53043 0,0.61478 0,0.0421 0,0.0632 0,0.0727 0,0.004 0,0.005 0,0.006 0,1.93941 3.13296,1.65951 3.13296,0 0,-0.0265 6.4e-4,-0.0529 0,-0.0794 0,-0.0844 0,-0.26117 0,-0.61478 0,-0.7072 0,-2.13682 0,-5.0305 0,-5.78737 0,-17.42336 0,-40.8323 0,-46.81786 0,-140.71603 0,-329.024949 0.006,-0.434154 -0.16065,-0.852085 -0.46066,-1.158474 -0.30001,-0.30639 -0.70825,-0.475115 -1.1316,-0.46768 z"
     style="display:inline;fill:#ffffff;fill-opacity:1;fill-rule:evenodd;stroke:none;stroke-width:16.18924332;stroke-linecap:round;stroke-linejoin:round;stroke-miterlimit:4;stroke-dasharray:none;stroke-opacity:1"
     sodipodi:nodetypes="ccssssscssssscsc"
     inkscape:connector-curvature="0" />
  <path
     style="display:inline;fill:#000000;fill-opacity:1;fill-rule:evenodd;stroke:#000000;stroke-width:0;stroke-linecap:butt;stroke-linejoin:miter;stroke-miterlimit:4;stroke-dasharray:none;stroke-opacity:1"
     d="m 622.67453,18.59761 c 1.10009,-2.233778 4.0045,-2.007922 6.64814,-2.758522 v 68.962671 c -2.01459,-0.212396 -3.4248,-0.319629 -5.43939,-2.032595 -19.9767,34.781786 -51.37207,5.946705 -39.28453,-7.839965 -23.77217,0.262757 -72.6277,-1.247212 -378.34019,-0.114228 -3.92522,-14.649577 -5.9041,-28.169509 -0.21368,-48.978779 305.37776,-2.49954 360.49441,-1.711044 377.34669,-0.269722 -8.60026,-20.5185792 26.87537,-34.2090412 39.28296,-6.96886 z"
     id="path2501-6-8"
     sodipodi:nodetypes="ccccccccc"
     inkscape:connector-curvature="0" />
  <path
     id="path3338-1-3"
     d="m 617.16178,25.953968 c 0.13028,-6.22364 -2.95865,-12.355959 -8.64703,-15.485092 -6.96567,-3.8317262 -16.35269,-1.8168482 -20.25701,5.523183 -3.12032,5.866115 -1.39949,13.745877 4.8039,16.946711 4.85542,2.505294 11.35946,1.037241 13.92124,-4.182798 1.95637,-3.986452 0.71154,-9.302086 -3.62141,-11.315772 -3.21359,-1.493456 -7.48679,-0.446017 -9.01655,3.145517 -0.54778,1.286064 -0.59786,2.694269 -0.16798,4.000937 0.4299,1.306677 1.4365,2.550983 2.91594,3.11183 1.01614,0.385222 2.09331,0.386542 3.11078,0.0135 1.01747,-0.373064 2.01649,-1.241439 2.39862,-2.478661 0.24992,-0.809286 0.21199,-1.617813 -0.12093,-2.411324 -0.33295,-0.79354 -1.12836,-1.619044 -2.19032,-1.838821 -0.46944,-0.09715 -0.89628,-0.04602 -1.32359,0.0808 0.79724,-0.425335 1.85913,-0.463831 2.74125,-0.0539 2.13207,0.990842 2.80214,3.857818 1.74687,6.00813 -1.50505,3.0668 -5.56417,3.981023 -8.59328,2.418063 -4.09691,-2.113933 -5.28632,-7.552477 -3.13764,-11.591919 2.79871,-5.261521 9.75511,-6.758168 14.90217,-3.92685 5.28972,2.909818 7.70722,9.464536 6.13421,15.2965 l 3.78938,1.03055 c 0.38023,-1.409713 0.58134,-2.854335 0.61141,-4.290583 z m -16.76327,-3.751709 -1.5386,2.148636 c -0.0564,-0.13425 -0.0556,-0.14634 -0.0134,-0.282886 0.006,-0.0199 0.088,-0.08395 0.007,-0.0539 -0.0815,0.02985 -0.28428,0.03232 -0.36955,0 -0.2956,-0.112071 -0.45863,-0.297863 -0.57782,-0.660059 -0.0963,-0.2927 -0.0751,-0.663842 0.007,-0.990132 0.0218,-0.0201 0.0491,-0.05676 0.0669,-0.07429 0.11349,-0.109045 0.18792,-0.1598 0.26201,-0.208839 0.0742,-0.04897 -0.0608,-0.05439 0.47031,-0.222279 0.38881,-0.123038 0.94411,-0.08237 1.31687,0.0943 0.15849,0.07518 0.26664,0.162667 0.3695,0.249257 z"
     style="display:inline;fill:#ffffff;fill-opacity:1;fill-rule:evenodd;stroke:none;stroke-width:19.34892845;stroke-linecap:butt;stroke-linejoin:miter;stroke-miterlimit:4;stroke-dasharray:none;stroke-opacity:1"
     inkscape:connector-curvature="0" />
  <path
     id="path3415-6-5"
     d="m 617.32502,78.261141 c 0.13029,6.223649 -2.95863,12.355979 -8.64703,15.485092 -6.96566,3.831726 -16.35269,1.816858 -20.25701,-5.523183 -3.12031,-5.866096 -1.39948,-13.745868 4.8039,-16.946712 4.85542,-2.505294 11.35949,-1.03724 13.92124,4.182808 1.95637,3.986452 0.71156,9.302087 -3.6214,11.315773 -3.21358,1.493446 -7.4868,0.446027 -9.01656,-3.145537 -0.54778,-1.286045 -0.59785,-2.69426 -0.16797,-4.000917 0.42989,-1.306678 1.4365,-2.550984 2.91593,-3.11184 1.01614,-0.385212 2.09332,-0.386533 3.11079,-0.0135 1.01747,0.373063 2.01649,1.241459 2.39856,2.47873 0.24993,0.809286 0.212,1.617813 -0.12094,2.411333 -0.33294,0.793521 -1.12836,1.619045 -2.19032,1.838821 -0.46943,0.09715 -0.89627,0.04602 -1.3236,-0.0808 0.79725,0.425334 1.85914,0.463831 2.74127,0.0539 2.13206,-0.990851 2.80214,-3.857838 1.74687,-6.00814 -1.50506,-3.0668 -5.56419,-3.981023 -8.59329,-2.418073 -4.0969,2.113933 -5.28632,7.552487 -3.13765,11.59194 2.79874,5.26152 9.75512,6.758168 14.90218,3.92683 5.28972,-2.909818 7.70724,-9.464537 6.13422,-15.296491 l 3.78938,-1.03054 c 0.38022,1.409693 0.58133,2.854325 0.6114,4.290553 z m -16.76328,3.751709 -1.53858,-2.148657 c -0.0564,0.134261 -0.0556,0.146351 -0.0134,0.282907 0.006,0.0199 0.088,0.08395 0.007,0.0539 -0.0815,-0.02986 -0.28428,-0.03232 -0.36954,0 -0.29561,0.112061 -0.45864,0.297853 -0.57782,0.660058 -0.0963,0.292681 -0.0751,0.663823 0.007,0.990123 0.0218,0.0201 0.0491,0.05675 0.067,0.07429 0.11349,0.109046 0.18791,0.1598 0.262,0.20883 0.0742,0.04897 -0.0607,0.05429 0.47032,0.222269 0.38881,0.123057 0.94412,0.08237 1.31688,-0.0943 0.15849,-0.07518 0.26662,-0.162667 0.36949,-0.249257 z"
     style="display:inline;fill:#ffffff;fill-opacity:1;fill-rule:evenodd;stroke:none;stroke-width:19.34892845;stroke-linecap:butt;stroke-linejoin:miter;stroke-miterlimit:4;stroke-dasharray:none;stroke-opacity:1"
     inkscape:connector-curvature="0" />
  <path
     style="display:inline;fill:#ffffff;fill-opacity:1;fill-rule:evenodd;stroke:none;stroke-width:1.05881047px;stroke-linecap:butt;stroke-linejoin:miter;stroke-opacity:1"
     d="m 616.5552,29.544941 c -3.72193,17.75515 -2.06015,32.413575 0.64799,46.693261 l -4.11888,-0.367063 c -6.34598,-23.374707 -5.96207,-31.35777 0.40539,-48.652153 z"
     id="path3348-6-5"
     sodipodi:nodetypes="ccccc"
     inkscape:connector-curvature="0" />
  <path
     style="display:inline;fill:#ffffff;fill-opacity:1;fill-rule:evenodd;stroke:none;stroke-width:1.05881047px;stroke-linecap:butt;stroke-linejoin:miter;stroke-opacity:1"
     d="m 589.43376,72.164834 c 0.39355,-1.158061 5.08335,-4.323975 5.1372,-3.048887 1.16871,-11.304964 1.08483,-21.849643 -0.30219,-33.973185 -1.79805,0.15509 -3.31466,-1.312471 -4.83501,-2.758493 3.07634,15.414879 1.67645,27.320723 0,39.780565 z"
     id="path3350-9-9"
     sodipodi:nodetypes="ccccc"
     inkscape:connector-curvature="0" />
  <path
     style="display:inline;fill:#ffffff;fill-opacity:1;fill-rule:evenodd;stroke:none;stroke-width:8.47048378;stroke-linecap:round;stroke-linejoin:round;stroke-miterlimit:4;stroke-dasharray:none;stroke-opacity:1"
     d="m 623.2836,76.747043 -0.11007,-52.071336 c 0.002,-1.316599 -0.22408,-2.534371 -0.59107,-3.188231 -0.36699,-0.653881 -0.81852,-0.642885 -1.1822,0.02877 -0.36365,0.671665 -0.58327,1.900265 -0.57499,3.216609 l 0.11008,52.071336 c -0.002,1.316599 0.22407,2.534341 0.59106,3.188241 0.36698,0.653871 0.81853,0.642885 1.1822,-0.02877 0.36365,-0.671626 0.58328,-1.900197 0.57499,-3.21659 z"
     id="path3516-5-1"
     inkscape:connector-curvature="0" />
  <path
     style="display:inline;fill:#000000;fill-opacity:1;fill-rule:evenodd;stroke:#000000;stroke-width:0;stroke-linecap:butt;stroke-linejoin:miter;stroke-miterlimit:4;stroke-dasharray:none;stroke-opacity:1"
     d="M 6.6481445,81.88808 C 5.5480525,84.15513 2.6436435,83.92592 2.5e-6,84.68769 L 5.0000001e-7,14.69783 C 2.0145945,14.91339 3.4248005,15.02222 5.4393835,16.7607 25.416097,-18.53915 56.811469,10.72542 44.723925,24.71744 c 23.772165,-0.26666 72.627695,1.2658 378.340195,0.11594 3.9252,14.86777 5.90408,28.58908 0.21366,49.7083 C 117.90003,77.07845 62.783379,76.27821 45.931098,74.81542 54.531365,95.63962 19.055732,109.534 6.6481445,81.88808 Z"
     id="path2501-6-8-9"
     sodipodi:nodetypes="ccccccccc"
     inkscape:connector-curvature="0" />
  <path
     id="path3338-1-3-3"
     d="m 12.16089,74.42216 c -0.130277,6.31633 2.958654,12.53999 8.647038,15.71574 6.965665,3.88879 16.352676,1.8439 20.256999,-5.60546 3.120329,-5.95349 1.399493,-13.95062 -4.803898,-17.19912 -4.855418,-2.54262 -11.359457,-1.0527 -13.921236,4.24509 -1.956371,4.04584 -0.711543,9.44064 3.621406,11.48432 3.21359,1.5157 7.48679,0.45266 9.016558,-3.19237 0.547781,-1.30522 0.597855,-2.7344 0.167975,-4.06052 -0.429898,-1.32615 -1.4365,-2.58898 -2.915941,-3.15819 -1.016137,-0.39095 -2.093304,-0.39229 -3.110782,-0.0137 -1.017471,0.37861 -2.016483,1.25992 -2.39862,2.51557 -0.249896,0.82135 -0.211982,1.64192 0.120929,2.44724 0.332951,0.80537 1.128366,1.64316 2.190323,1.86621 0.469457,0.0986 0.896282,0.0467 1.323592,-0.082 -0.797239,0.43167 -1.859126,0.47075 -2.741252,0.0547 -2.132071,-1.0056 -2.802133,-3.91527 -1.746865,-6.09761 1.505043,-3.11248 5.564169,-4.04033 8.593283,-2.45409 4.096903,2.14542 5.286308,7.66497 3.137633,11.76459 -2.798717,5.33988 -9.75511,6.85882 -14.902169,3.98533 -5.289719,-2.95316 -7.707219,-9.6055 -6.134203,-15.52434 l -3.789381,-1.0459 c -0.38025,1.43071 -0.581347,2.89685 -0.611416,4.35448 z m 16.763269,3.80758 1.538606,-2.18063 c 0.05636,0.13623 0.05556,0.1485 0.01335,0.28708 -0.006,0.0203 -0.08805,0.0852 -0.0074,0.0546 0.08153,-0.0303 0.284286,-0.0328 0.369575,-5e-5 0.295584,0.11378 0.458617,0.3023 0.57782,0.66989 0.09629,0.29706 0.07509,0.67373 -0.007,1.00488 -0.02181,0.0203 -0.04907,0.0576 -0.06688,0.0754 -0.113509,0.11066 -0.187918,0.16218 -0.262004,0.21195 -0.07419,0.0497 0.06078,0.0552 -0.470313,0.22559 -0.388815,0.12486 -0.944116,0.0836 -1.316872,-0.0957 -0.158477,-0.0763 -0.266625,-0.16513 -0.369496,-0.25297 z"
     style="display:inline;fill:#ffffff;fill-opacity:1;fill-rule:evenodd;stroke:none;stroke-width:19.49249649;stroke-linecap:butt;stroke-linejoin:miter;stroke-miterlimit:4;stroke-dasharray:none;stroke-opacity:1"
     inkscape:connector-curvature="0" />
  <path
     id="path3415-6-5-3"
     d="m 11.997648,21.33588 c -0.130286,-6.31636 2.958629,-12.5400202 8.647034,-15.7157502 6.965656,-3.8888 16.352694,-1.84391 20.257014,5.6054502 3.120309,5.95348 1.399473,13.95061 -4.8039,17.19913 -4.855431,2.54261 -11.359494,1.0527 -13.921242,-4.2451 -1.956373,-4.04584 -0.711557,-9.44065 3.6214,-11.48433 3.213579,-1.51569 7.486803,-0.45266 9.016559,3.19239 0.547775,1.3052 0.597847,2.7344 0.167965,4.06051 -0.429879,1.32615 -1.436496,2.58899 -2.915928,3.1582 -1.016139,0.39094 -2.09332,0.39229 -3.110792,0.0137 -1.017466,-0.37862 -2.016482,-1.25994 -2.398561,-2.51565 -0.249929,-0.82133 -0.211997,-1.6419 0.120935,-2.44725 0.332952,-0.80533 1.128359,-1.64315 2.190325,-1.86621 0.469433,-0.0986 0.896276,-0.0467 1.323596,0.082 -0.797251,-0.43167 -1.859138,-0.47072 -2.741268,-0.0547 -2.132061,1.00562 -2.802136,3.91531 -1.746865,6.09763 1.505063,3.11249 5.564191,4.04033 8.593282,2.4541 4.096913,-2.14542 5.286329,-7.66498 3.137618,-11.76462 C 34.63608,7.7654898 27.679698,6.2465498 22.532762,9.1196398 17.243036,12.07279 14.825515,18.72514 16.398542,24.64396 l -3.789387,1.04589 c -0.380214,-1.43069 -0.581329,-2.89684 -0.611404,-4.35446 z m 16.763293,-3.80759 1.53857,2.18065 c 0.05639,-0.13628 0.05563,-0.14851 0.01337,-0.28712 -0.006,-0.0201 -0.08802,-0.0852 -0.007,-0.0547 0.08158,0.0301 0.284289,0.0328 0.369557,-6e-5 0.295607,-0.11372 0.458635,-0.30228 0.577817,-0.66988 0.09626,-0.29706 0.0751,-0.67371 -0.007,-1.00487 -0.02178,-0.0203 -0.04917,-0.0576 -0.06697,-0.0754 -0.1135,-0.11064 -0.187914,-0.16219 -0.262002,-0.21194 -0.07417,-0.0497 0.06072,-0.0551 -0.470313,-0.22561 -0.388815,-0.12489 -0.944114,-0.0836 -1.316882,0.0957 -0.158479,0.0763 -0.266621,0.16508 -0.369491,0.25296 z"
     style="display:inline;fill:#ffffff;fill-opacity:1;fill-rule:evenodd;stroke:none;stroke-width:19.49249649;stroke-linecap:butt;stroke-linejoin:miter;stroke-miterlimit:4;stroke-dasharray:none;stroke-opacity:1"
     inkscape:connector-curvature="0" />
  <path
     style="display:inline;fill:#ffffff;fill-opacity:1;fill-rule:evenodd;stroke:none;stroke-width:1.06666672px;stroke-linecap:butt;stroke-linejoin:miter;stroke-opacity:1"
     d="m 12.767476,70.77769 c 3.721919,-18.01961 2.060145,-32.89637 -0.64799,-47.38874 l 4.11887,0.37252 c 6.345984,23.72287 5.962077,31.82485 -0.405385,49.37683 z"
     id="path3348-6-5-0"
     sodipodi:nodetypes="ccccc"
     inkscape:connector-curvature="0" />
  <path
     style="display:inline;fill:#ffffff;fill-opacity:1;fill-rule:evenodd;stroke:none;stroke-width:1.06666672px;stroke-linecap:butt;stroke-linejoin:miter;stroke-opacity:1"
     d="m 39.888918,27.52299 c -0.393601,1.1753 -5.083356,4.38837 -5.1372,3.0943 -1.168715,11.47335 -1.084838,22.17508 0.302183,34.4792 1.798053,-0.15739 3.31466,1.33203 4.835012,2.79959 -3.076342,-15.64449 -1.676446,-27.72767 5e-6,-40.37309 z"
     id="path3350-9-9-1"
     sodipodi:nodetypes="ccccc"
     inkscape:connector-curvature="0" />
  <path
     style="display:inline;fill:#ffffff;fill-opacity:1;fill-rule:evenodd;stroke:none;stroke-width:8.53333378;stroke-linecap:round;stroke-linejoin:round;stroke-miterlimit:4;stroke-dasharray:none;stroke-opacity:1"
     d="m 6.0390705,22.87252 0.110077,52.84694 c -0.002,1.3362 0.224072,2.57212 0.591066,3.23571 0.366986,0.66363 0.818512,0.65246 1.1822,-0.0292 0.36365,-0.68166 0.583227,-1.92858 0.574982,-3.26452 L 8.3873175,22.81452 c 0.002,-1.33621 -0.22407,-2.57209 -0.59106,-3.23573 -0.366972,-0.66361 -0.818524,-0.65246 -1.182193,0.0292 -0.363649,0.68162 -0.583306,1.92849 -0.574996,3.26449 z"
     id="path3516-5-1-2"
     inkscape:connector-curvature="0" />
  <path
     id="path3376-2-0-2"
     d="m 47.751357,70.57411 c 0.01001,0.41555 0.261264,0.81146 0.699509,1.10044 0.438257,0.28903 1.027126,0.44739 1.636895,0.44025 266.071869,0 398.735219,2e-5 464.886749,0 33.07573,0 49.52326,1e-5 57.70056,1e-5 4.08864,0 6.11398,-1e-5 7.11323,-1e-5 0.49966,-2e-5 0.74158,1e-5 0.86077,0 0.0597,0 0.0906,-3e-5 0.10405,1e-5 0.005,7e-5 0.007,-6.4e-4 0.007,3.3e-4 2.07864,0.11806 3.97789,-2.90703 0,-3.13298 -0.038,-0.002 -0.0756,-5.9e-4 -0.11358,-5e-5 -0.11915,3e-5 -0.36114,-2e-5 -0.8608,0 -0.99928,0 -3.02457,10e-6 -7.11321,10e-6 -8.17731,0 -24.62486,-10e-6 -57.7006,-10e-6 -66.15068,-3.5e-4 -198.81407,-3.5e-4 -464.885903,-3.5e-4 -0.622892,-0.007 -1.223402,0.15813 -1.663902,0.45833 -0.440101,0.30048 -0.683222,0.70946 -0.67252,1.13395 z"
     style="display:inline;fill:#ffffff;fill-opacity:1;fill-rule:evenodd;stroke:none;stroke-width:19.36593628;stroke-linecap:round;stroke-linejoin:round;stroke-miterlimit:4;stroke-dasharray:none;stroke-opacity:1"
     sodipodi:nodetypes="cscssssssssssscsc"
     inkscape:connector-curvature="0" />
  <path
     style="display:inline;fill:#ffffff;fill-opacity:1;fill-rule:evenodd;stroke:none;stroke-width:15.3116436;stroke-linecap:round;stroke-linejoin:round;stroke-miterlimit:4;stroke-dasharray:none;stroke-opacity:1"
     d="m 45.599681,63.42482 c 0.01975,0.86457 1.064305,1.55451 2.332949,1.54096 268.15153,2e-5 401.85526,2e-5 468.52376,0 33.33428,0 49.90253,0 58.14372,1e-5 4.12064,-1e-5 6.15922,-1e-5 7.16632,0 0.47593,-1e-5 0.69853,0 0.8255,0 0.007,-6.3e-4 0.0413,-5.3e-4 0.048,-3e-4 0.0598,2e-5 0.0823,-3e-5 0.0958,0 0.005,7e-5 0.01,-1.2e-4 0.0122,4e-4 2.8176,1e-5 2.85445,-3.13088 0,-3.13088 -0.0358,-4.9e-4 -0.0717,-5.8e-4 -0.10772,2e-5 -0.12011,0 -0.36984,10e-6 -0.87334,10e-6 -1.0071,-10e-6 -3.04568,-10e-6 -7.16629,-2e-5 -8.24121,0 -24.80949,1e-5 -58.14375,1e-5 -66.66851,0 -200.37223,0 -468.523774,0 -0.621648,-0.007 -1.220715,0.15874 -1.660355,0.45836 -0.439239,0.29989 -0.682273,0.70787 -0.672561,1.13155 z"
     id="path3378-8-3-9"
     sodipodi:nodetypes="ccsssssssssssscsc"
     inkscape:connector-curvature="0" />
  <path
     style="display:inline;fill:#ffffff;fill-opacity:1;fill-rule:evenodd;stroke:none;stroke-width:15.31164646;stroke-linecap:round;stroke-linejoin:round;stroke-miterlimit:4;stroke-dasharray:none;stroke-opacity:1"
     d="m 44.307618,56.56784 c 0.01975,0.86459 1.064287,1.55452 2.332946,1.54098 269.461096,0 403.814686,0 470.808846,0 33.49704,0 50.14937,0 58.43088,0 4.14071,0 6.19016,0 7.20213,-1e-5 0.47828,1e-5 0.69797,1e-5 0.82552,1e-5 0.007,3.2e-4 0.0412,4.6e-4 0.048,-3.1e-4 0.0603,0 0.094,1.1e-4 0.10773,-2e-5 0.005,7e-5 0.01,-1.2e-4 0.0109,1.4e-4 2.06988,-0.17632 2.05525,-3.30597 10e-6,-3.13088 -0.0751,0.006 -0.15156,-0.003 -0.22736,-3e-5 -0.13493,-10e-6 -0.32201,-4e-5 -0.76565,-10e-6 -1.01198,10e-6 -3.06143,10e-6 -7.20212,10e-6 -8.28153,1e-5 -24.93386,1e-5 -58.43091,0 -66.99415,0 -201.34774,1e-5 -470.808844,-10e-6 -0.621652,-0.007 -1.220723,0.15875 -1.660359,0.45836 -0.440582,0.29942 -0.682989,0.70789 -0.673242,1.13155 z"
     id="path3382-1-3-0"
     sodipodi:nodetypes="ccsssssscssssscsc"
     inkscape:connector-curvature="0" />
  <path
     id="path3384-1-7-7"
     d="m 44.355536,42.92535 c 0.02003,0.86287 1.060794,1.55196 2.326923,1.54073 269.272061,0 403.539391,1e-5 470.486511,0 33.47359,0 50.11544,1e-5 58.39112,-10e-6 4.13777,2e-5 6.18705,0 7.19837,10e-6 0.47816,-10e-6 0.69552,0 0.82294,0 0.007,3.3e-4 0.0408,3.8e-4 0.0475,-4.1e-4 0.0603,10e-6 0.0902,2e-5 0.10405,10e-6 0.005,7e-5 0.007,3.3e-4 0.007,3.3e-4 2.93383,1e-5 2.20025,-3.12652 0,-3.12653 -0.0758,10e-6 -0.15136,-0.003 -0.22705,4e-5 -0.13547,-2e-5 -0.31699,-4e-5 -0.7567,0 -1.01129,1e-5 -3.06058,1e-5 -7.19838,0 -8.2757,0 -24.91754,0 -58.39111,0 -66.94711,0 -201.21446,-1e-5 -470.48651,0 -0.619588,-0.005 -1.216157,0.15982 -1.654294,0.45842 -0.43776,0.29885 -0.680707,0.70515 -0.672643,1.12739 z"
     style="display:inline;fill:#ffffff;fill-opacity:1;fill-rule:evenodd;stroke:none;stroke-width:19.36593437;stroke-linecap:round;stroke-linejoin:round;stroke-miterlimit:4;stroke-dasharray:none;stroke-opacity:1"
     sodipodi:nodetypes="ccsssssscssssscsc"
     inkscape:connector-curvature="0" />
  <path
     id="path3386-2-6-2"
     d="m 47.751352,29.63282 c 0.02002,0.86285 1.060792,1.55197 2.326912,1.54071 266.010616,0 398.655926,0 464.792196,0 33.06807,2e-5 49.50617,0 57.68161,10e-6 4.08767,-2e-5 6.11421,0 7.1132,0 0.47212,-10e-6 0.6876,-10e-6 0.81351,0 0.007,3.3e-4 0.0408,3.8e-4 0.0475,-4.1e-4 0.0596,-3e-5 0.0808,3e-5 0.0945,-10e-6 0.005,7e-5 0.0182,2.9e-4 0.0182,2.9e-4 3.04236,-0.46074 1.47882,-3.35693 2e-5,-3.13296 -0.0369,0.006 -0.0758,-6.2e-4 -0.11371,2e-5 -0.11915,3e-5 -0.36122,-4e-5 -0.86077,0 -0.99903,10e-6 -3.02554,0 -7.11323,0 -8.17542,0 -24.61352,0 -57.68162,10e-6 -66.13625,0 -198.78154,-2e-5 -464.792173,-10e-6 -0.621246,-0.005 -1.219303,0.16066 -1.657732,0.46067 -0.43891,0.29966 -0.679866,0.70825 -0.66922,1.13161 z"
     style="display:inline;fill:#ffffff;fill-opacity:1;fill-rule:evenodd;stroke:none;stroke-width:19.36593437;stroke-linecap:round;stroke-linejoin:round;stroke-miterlimit:4;stroke-dasharray:none;stroke-opacity:1"
     sodipodi:nodetypes="ccsssssscssssscsc"
     inkscape:connector-curvature="0" />
  <path
     id="path3390-1-1-8"
     d="m 45.604125,36.38867 c 0.01001,0.41555 0.261289,0.81147 0.699529,1.10046 0.43825,0.289 1.027133,0.44737 1.636885,0.44024 267.972471,1e-5 401.582911,0 468.206891,0 33.31202,0 49.88105,1e-5 58.11676,0 4.11787,1e-5 6.15414,0 7.16056,0 0.47582,-4e-5 0.69614,0 0.82293,1e-5 0.007,3.2e-4 0.0407,3.5e-4 0.0475,-4.2e-4 0.0598,3e-5 0.0808,3e-5 0.0945,0 0.005,7e-5 0.0122,4e-4 0.0182,2.9e-4 1.04034,-0.0645 3.63608,-2.20819 -3e-5,-3.13298 -0.0379,-8.8e-4 -0.84911,-6.2e-4 -0.88696,0 -0.11997,2e-5 0.40643,1e-5 -0.0967,0 -1.00642,1e-5 -3.04268,0 -7.16054,1e-5 -8.23574,0 -24.80475,-1e-5 -58.11678,-1e-5 -66.62397,1e-5 -200.2344,1e-5 -468.206883,1e-5 -0.622879,-0.007 -1.223385,0.15812 -1.663885,0.45833 -0.440089,0.30049 -0.683235,0.70945 -0.672518,1.13395 z"
     style="display:inline;fill:#ffffff;fill-opacity:1;fill-rule:evenodd;stroke:none;stroke-width:19.36593437;stroke-linecap:round;stroke-linejoin:round;stroke-miterlimit:4;stroke-dasharray:none;stroke-opacity:1"
     sodipodi:nodetypes="cscssssssscsssscsc"
     inkscape:connector-curvature="0" />
  <path
     id="path3402-8-2-4"
     d="m 44.308239,49.94554 c 0.02005,0.86283 1.060774,1.55193 2.326899,1.54071 269.460322,-2e-5 403.823752,-2e-5 470.817662,-2e-5 33.49698,0 50.14748,0 58.42888,-10e-6 4.14073,0 6.18643,10e-6 7.1984,0 0.50599,2e-5 0.75901,10e-6 0.87971,10e-6 0.0602,0 0.0906,-3e-5 0.10405,1e-5 0.005,6e-5 0.007,3.2e-4 0.007,3.2e-4 2.7752,1e-5 2.37466,-3.13295 -10e-6,-3.13295 -0.038,1.6e-4 -0.0758,-7.2e-4 -0.11344,-3e-5 -0.12078,6e-5 -0.37374,10e-6 -0.87973,0 -1.01197,0 -3.05769,0 -7.19839,10e-6 -8.28141,-2e-5 -24.93193,-10e-6 -58.42891,-10e-6 -66.99393,0 -201.35733,-1e-5 -470.817594,0 -0.62126,-0.006 -1.219286,0.16065 -1.65774,0.46065 -0.438912,0.29966 -0.679844,0.70826 -0.669205,1.1316 z"
     style="display:inline;fill:#ffffff;fill-opacity:1;fill-rule:evenodd;stroke:none;stroke-width:19.36593437;stroke-linecap:round;stroke-linejoin:round;stroke-miterlimit:4;stroke-dasharray:none;stroke-opacity:1"
     sodipodi:nodetypes="ccssssscssssscsc"
     inkscape:connector-curvature="0" />
</svg>
